<svg width="1026" height="515" viewBox="0 0 1026 515" fill="none" xmlns="http://www.w3.org/2000/svg">
<path d="M741.207 196.968H721.844C721.711 197.941 721.536 198.556 721.556 199.165C722.671 233.833 723.752 268.504 724.957 303.168C725.335 313.964 725.481 313.777 736.401 313.294C740.369 313.118 741.74 312.102 741.713 307.85C741.487 272.368 741.525 236.885 741.468 201.404C741.467 200.025 741.311 198.649 741.207 196.968ZM733.736 323.46C706.597 323.46 679.457 323.408 652.32 323.516C648.272 323.53 645.951 322.088 645.627 318.018C644.617 305.297 643.195 292.584 642.789 279.841C641.852 250.309 642.532 220.837 648.697 191.758C650.256 184.41 650.264 184.494 657.565 184.37C709.775 183.485 761.984 182.569 814.193 181.629C821.036 181.505 821.043 181.416 821.036 188.261C820.993 231.176 820.948 274.089 820.901 317.004C820.895 323.325 820.887 323.306 814.679 323.304C787.699 323.297 760.717 323.301 733.735 323.301C733.735 323.354 733.735 323.406 733.736 323.46Z" fill="black"/>
<path d="M312.972 198.481C307.821 198.481 303.107 198.581 298.399 198.448C295.056 198.352 293.973 199.837 294.127 203.04C294.345 207.608 294.283 212.192 294.267 216.768C294.219 230.341 294.168 243.914 294.041 257.486C294.008 261.157 294.705 263.713 299.311 263.033C302.424 262.573 305.603 262.413 308.752 262.402C312.319 262.389 313.364 260.592 313.272 257.322C313.076 250.382 313.007 243.438 312.984 236.494C312.941 224.061 312.972 211.626 312.972 198.481ZM303.463 321.889C276.487 321.889 249.509 321.762 222.535 322.009C217.803 322.052 216.752 320.601 216.771 316.146C216.956 273.393 216.995 230.641 216.865 187.889C216.855 183.998 218.001 183.048 221.643 183.053C276.552 183.14 331.46 183.153 386.368 183.048C390.351 183.04 391.431 184.354 391.421 188.217C391.359 215.828 391.524 243.44 391.565 271.05C391.577 278.589 390.993 279.041 383.655 279.158C355.269 279.612 326.883 280.042 298.5 280.642C292.699 280.764 291.823 282.097 292.107 287.925C292.719 300.494 293.885 301.789 306.785 301.504C332.807 300.925 358.827 300.181 384.839 299.265C389.036 299.117 390.491 300.202 390.195 304.448C389.889 308.838 390.096 313.285 390.364 317.69C390.557 320.853 389.321 321.741 386.28 321.73C358.675 321.645 331.069 321.68 303.464 321.68C303.463 321.75 303.463 321.82 303.463 321.889Z" fill="black"/>
<path d="M943.454 210.642C943.454 211.114 943.455 211.586 943.453 212.059C943.421 223.934 943.422 223.827 955.233 224.09C958.201 224.156 959.681 223.175 960.083 220.367C960.975 214.14 961.75 207.895 962.762 201.69C963.454 197.452 961.881 196.123 957.655 196.254C943.653 196.69 943.649 196.57 943.454 210.642ZM961.995 276.252H960.429C960.429 267.28 960.653 258.302 960.371 249.338C960.039 238.878 959.203 238.47 948.613 238.83C944.149 238.982 942.778 240.655 942.813 245.106C942.901 256.574 942.461 268.047 942.221 279.516C942.05 287.703 941.843 295.888 941.693 304.074C941.637 307.136 942.879 308.688 946.281 308.424C950.038 308.131 953.847 308.08 957.606 308.339C961.306 308.595 962.139 307.038 962.063 303.631C961.865 294.508 961.995 285.379 961.995 276.252ZM999.125 228.432C1001.94 229.927 1004.48 231.16 1006.91 232.576C1016.61 238.239 1023.06 246.252 1023.82 257.79C1024.72 271.778 1025.32 285.786 1025.86 299.794C1026.09 305.935 1025.72 312.098 1025.86 318.244C1025.92 321.086 1025.03 322.14 1022.08 322.132C981.694 322.027 941.31 321.99 900.926 321.999C889.57 322.003 878.211 322.266 866.854 322.308C860.437 322.334 859.035 320.955 859.133 314.504C859.769 272.394 860.494 230.284 861.103 188.174C861.157 184.462 862.269 182.918 866.303 182.926C899.267 182.998 932.235 182.8 965.202 182.835C977.187 182.846 989.174 183.215 1001.16 183.511C1007.12 183.659 1008.85 185.51 1008.46 191.335C1007.59 204.106 1006.63 216.87 999.125 228.432Z" fill="black"/>
<path d="M73.1038 250.924C81.5024 250.924 89.2078 251.027 96.9025 250.784C97.7851 250.756 99.2491 248.859 99.3558 247.726C100.448 236.115 101.429 224.491 102.208 212.854C102.765 204.519 102.996 196.162 103.318 187.812C103.47 183.883 105.33 182.39 109.325 182.414C131.1 182.546 152.877 182.532 174.653 182.422C177.812 182.404 179.276 183.33 179.377 186.592C179.657 195.732 179.873 204.883 180.5 214.003C182.881 248.678 183.588 283.347 181.018 318.05C180.792 321.107 180.266 322.635 176.79 322.619C153.756 322.514 130.72 322.571 107.684 322.558C106.452 322.556 105.22 322.384 103.538 322.259C103.538 320.411 103.458 318.748 103.55 317.095C104.385 302.287 105.132 287.474 106.181 272.682C106.478 268.492 105.358 267.202 101.026 267.348C69.3331 268.42 37.6291 269.175 5.93578 270.248C1.72112 270.391 0.12245 269.616 0.14645 264.99C0.281117 240.223 0.0811154 215.454 0.00111541 190.686C-0.0202179 183.715 0.193113 183.51 7.10645 183.495C27.3011 183.452 47.4985 183.544 67.6918 183.264C72.2078 183.202 73.2384 184.727 73.1931 188.944C72.9958 207.563 73.1051 226.184 73.1038 244.804V250.924Z" fill="black"/>
<path d="M337.34 82.1379L334.848 79.7392L324.588 90.3992L344.592 109.657L347.056 107.095L348.994 108.962L341.332 116.922L339.394 115.055L341.893 112.461L321.542 92.8699L319.042 95.4659L317.104 93.5992L334.829 75.1872L339.604 79.7845L337.34 82.1379Z" fill="black"/>
<path d="M368.563 73.8626L381.297 64.5813L364.999 55.5959L368.563 73.8626ZM388.025 72.1013L390.937 69.9786L384.327 66.2959L369.266 77.2733L370.673 84.7493L373.585 82.6266L375.169 84.8013L366.199 91.3359L364.615 89.1626L367.529 87.0413L361.603 56.4039L358.422 58.7239L356.838 56.5506L364.214 51.1733L394.081 67.6879L397.031 65.5359L398.615 67.7119L389.609 74.2759L388.025 72.1013Z" fill="black"/>
<path d="M424.51 28.2368L422.699 24.2568C420.171 24.0341 417.054 24.6061 413.905 26.0368C406.733 29.2955 404.155 36.7461 407.537 44.1808C410.933 51.6595 418.219 54.5741 425.391 51.3141C429.153 49.6061 431.815 46.8675 432.795 43.5701L435.847 44.7168C434.366 48.7675 431.165 52.1755 426.529 54.2808C417.345 58.4541 408.165 54.9741 403.993 45.7901C399.799 36.5621 403.278 27.3835 412.421 23.2301C416.969 21.1621 421.29 20.5715 424.939 21.2875L427.483 26.8848L424.51 28.2368Z" fill="black"/>
<path d="M463.8 38.2335L467.313 37.4282L461.1 10.3762L451.552 12.5695L452.325 15.9388L449.142 16.6708L447.658 10.2122L476.958 3.48285L478.44 9.94151L475.21 10.6815L474.438 7.31351L464.889 9.50685L471.102 36.5562L474.613 35.7508L475.213 38.3708L464.405 40.8535L463.8 38.2335Z" fill="black"/>
<path d="M507.936 3.46502L508.464 18.0624L516.003 17.789C520.081 17.6424 522.759 14.517 522.605 10.2424C522.451 5.96769 519.555 3.04369 515.472 3.19169L507.936 3.46502ZM500.328 0.565025L515.741 0.00902557C521.891 -0.213642 526.269 3.90769 526.493 10.1024C526.716 16.2477 522.647 20.7224 516.501 20.9437L508.576 21.2317L508.939 31.2197L512.491 31.0904L512.588 33.7797L501.544 34.1797L501.447 31.4904L505.047 31.3597L504.028 3.12502L500.428 3.25436L500.328 0.565025Z" fill="black"/>
<path d="M562.221 33.6547C569.857 34.8734 575.974 30.0627 577.259 22.0001C578.549 13.9361 574.233 7.46008 566.595 6.24008C559.055 5.03741 552.842 9.83208 551.554 17.8947C550.267 25.9587 554.679 32.4507 562.221 33.6547ZM567.094 3.11074C576.961 4.68541 582.741 12.6614 581.149 22.6201C579.561 32.5801 571.583 38.3587 561.719 36.7841C551.806 35.2014 546.123 27.2414 547.711 17.2827C549.303 7.32141 557.183 1.52808 567.094 3.11074Z" fill="black"/>
<path d="M606.687 12.1614L638.922 24.6881L637.947 27.1947L634.589 25.8907L624.359 52.2134L627.715 53.5187L626.742 56.0254L616.402 52.0067L617.377 49.5001L620.733 50.8041L630.789 24.9281L612.522 17.8294L602.469 43.7067L605.779 44.9947L604.806 47.5014L594.509 43.5001L595.483 40.9934L598.842 42.2961L609.071 15.9734L605.714 14.6681L606.687 12.1614Z" fill="black"/>
<path d="M656.29 58.1932L669.436 66.8798L672.158 48.4692L656.29 58.1932ZM664.744 75.8118L667.749 77.7998L668.889 70.3198L653.34 60.0438L646.829 63.9745L649.833 65.9598L648.352 68.2052L639.092 62.0865L640.576 59.8425L643.581 61.8292L670.216 45.5732L666.929 43.4012L668.413 41.1572L676.028 46.1892L670.993 79.9438L674.041 81.9558L672.556 84.2012L663.26 78.0572L664.744 75.8118Z" fill="black"/>
<path d="M696.996 102.911C699.553 105.447 703.22 105.23 705.926 102.503C708.634 99.7754 708.822 96.106 706.266 93.5687L699.721 87.0727L690.449 96.4154L696.996 102.911ZM717.017 89.214L719.454 86.7607L709.669 77.05L701.918 84.8567L708.704 91.59C712.728 95.5834 712.681 101.153 708.654 105.21C704.593 109.301 699.024 109.39 695 105.398L682.898 93.386L684.793 91.4767L687.35 94.014L707.246 73.9674L704.688 71.43L706.581 69.5207L724.037 86.8447L719.368 91.55L717.017 89.214Z" fill="black"/>
<path d="M339.769 423.731L341.632 426.115L345.24 408.416L339.203 407.708L331.779 413.508L333.968 416.309L331.851 417.967L325.044 409.259L327.164 407.601L329.381 410.441L351.647 393.044L349.427 390.204L351.547 388.547L358.351 397.256L356.232 398.913L354.044 396.111L343.139 404.632L362.592 407.053L361.024 405.045L363.145 403.388L369.948 412.097L367.831 413.755L365.611 410.915L348.885 408.863L344.384 429.637L346.691 432.591L344.573 434.248L337.647 425.387L339.769 423.731Z" fill="black"/>
<path d="M374.251 457.706C380.251 462.581 387.958 461.478 393.107 455.144C398.255 448.806 397.759 441.04 391.759 436.164C385.832 431.346 378.055 432.392 372.903 438.728C367.755 445.062 368.327 452.889 374.251 457.706ZM393.759 433.704C401.51 440.005 402.522 449.8 396.16 457.626C389.802 465.454 380.004 466.465 372.251 460.166C364.464 453.836 363.526 444.1 369.887 436.273C376.247 428.448 385.967 427.373 393.759 433.704Z" fill="black"/>
<path d="M419.675 452.775L450.926 467.616L449.771 470.045L446.514 468.5L434.396 494.02L437.651 495.567L436.495 497.996L426.471 493.236L427.624 490.804L430.878 492.352L442.792 467.264L425.087 458.856L413.172 483.941L416.382 485.468L415.228 487.897L405.247 483.156L406.4 480.727L409.656 482.272L421.776 456.751L418.519 455.205L419.675 452.775Z" fill="black"/>
<path d="M468.903 504.673L472.428 505.42L478.17 478.261L468.584 476.236L467.871 479.618L464.674 478.942L466.044 472.458L495.459 478.678L494.087 485.162L490.844 484.477L491.56 481.093L481.974 479.066L476.232 506.224L479.756 506.969L479.199 509.6L468.347 507.305L468.903 504.673Z" fill="black"/>
<path d="M536.897 510.701L540.498 510.606L539.844 485.588L519.536 513.845L512.045 514.041L511.974 511.352L515.577 511.258L514.84 483.022L511.236 483.117L511.165 480.429L522.209 480.138L522.281 482.829L518.728 482.921L519.382 507.94L539.69 479.682L547.181 479.486L547.252 482.176L543.649 482.269L544.389 510.505L547.989 510.41L548.061 513.1L536.969 513.39L536.897 510.701Z" fill="black"/>
<path d="M594.454 500.367L597.924 499.403L590.494 472.652L576.147 476.636C582.212 498.481 582.879 506.621 576.308 508.448C574.595 508.924 572.714 508.797 570.802 507.833L572.294 505.125C573.378 505.621 574.395 505.688 575.274 505.445C578.56 504.531 577.807 497.512 572.222 477.228L568.798 478.177L568.079 475.587L596.868 467.592L597.586 470.182L594.115 471.148L601.674 498.361L605.144 497.397L605.866 499.991L595.172 502.959L594.454 500.367Z" fill="black"/>
<path d="M638.685 480.779C642.186 478.875 643.166 474.953 641.172 471.283C639.153 467.571 635.349 466.307 631.848 468.208L624.382 472.268L631.218 484.84L638.685 480.779ZM610.096 461.675L619.797 456.399L621.082 458.76L617.96 460.459L622.87 469.485L630.673 465.243C635.988 462.351 641.676 464.068 644.59 469.424C647.502 474.781 645.85 480.489 640.537 483.38L626.152 491.201L624.868 488.84L628.03 487.12L614.545 462.316L611.38 464.036L610.096 461.675Z" fill="black"/>
<path d="M664.39 424.818L672.746 417.512L674.517 419.538L671.802 421.908L690.395 443.174L693.106 440.802L694.877 442.828L686.523 450.131L684.751 448.107L687.466 445.735L678.99 436.043L663.949 449.196L672.421 458.887L675.097 456.548L676.867 458.572L668.551 465.846L666.781 463.82L669.491 461.45L650.902 440.186L648.189 442.558L646.418 440.532L654.737 433.259L656.506 435.286L653.83 437.623L661.862 446.81L676.903 433.656L668.873 424.471L666.161 426.843L664.39 424.818Z" fill="black"/>
<path d="M691.667 399.055C689.568 401.92 690.235 405.564 693.257 407.776C696.319 410.018 699.991 409.552 702.089 406.686L707.111 399.827L696.689 392.195L691.667 399.055ZM716.985 411.46L719.084 408.592L709.632 401.671L706.709 405.662L711.255 419.287L713.212 416.614L715.383 418.202L708.745 427.27L706.575 425.68L708.788 422.658L704.299 408.955C700.979 413.488 695.571 414.291 690.96 410.915C686.388 407.568 685.509 402.103 688.857 397.531L698.559 384.279L700.727 385.867L698.627 388.735L721.412 405.415L723.511 402.547L725.681 404.136L719.156 413.048L716.985 411.46Z" fill="black"/>
<path d="M474.906 80.6377C476.019 81.311 477.221 81.4764 478.514 81.1377C479.805 80.7977 480.771 80.0617 481.409 78.9284C482.05 77.7964 482.197 76.575 481.851 75.2657C481.509 73.9564 480.781 72.9644 479.667 72.2937C478.554 71.6204 477.35 71.4537 476.059 71.7937C474.767 72.1324 473.802 72.8684 473.161 74.0004C472.523 75.1337 472.377 76.3564 472.719 77.6657C473.065 78.975 473.793 79.9657 474.906 80.6377ZM472.173 73.479C472.977 72.107 474.183 71.207 475.795 70.783C477.405 70.3617 478.897 70.551 480.271 71.3537C481.646 72.1564 482.545 73.363 482.967 74.9724C483.39 76.583 483.201 78.075 482.398 79.4497C481.597 80.8244 480.387 81.723 478.778 82.1457C477.169 82.5697 475.677 82.379 474.301 81.5777C472.927 80.775 472.029 79.5684 471.606 77.9577C471.183 76.347 471.371 74.855 472.173 73.479Z" fill="black"/>
<path d="M496.354 67.9783L496.602 69.4116C495.348 68.3863 493.972 68.0023 492.474 68.2623C491.14 68.4943 490.121 69.1409 489.413 70.2009C488.706 71.2623 488.47 72.4783 488.709 73.8476C488.966 75.3263 489.626 76.4049 490.692 77.0836C491.758 77.7609 492.884 77.9969 494.076 77.7903C495.534 77.5369 496.754 76.6463 497.736 75.1209L497.988 76.5809C497.012 77.8089 495.758 78.5569 494.226 78.8236C492.568 79.1116 491.116 78.8023 489.872 77.8943C488.629 76.9863 487.862 75.7129 487.578 74.0729C487.286 72.3956 487.568 70.9116 488.421 69.6209C489.274 68.3303 490.565 67.5343 492.296 67.2343C493.721 66.9876 495.073 67.2343 496.354 67.9783Z" fill="black"/>
<path d="M502.945 77.2246L501.912 66.0753L503.004 65.9739L503.46 70.8926L509.745 70.3086L509.289 65.3899L510.385 65.2873L511.417 76.4393L510.327 76.5406L509.843 71.3473L503.557 71.9299L504.04 77.1246L502.945 77.2246Z" fill="black"/>
<path d="M518.817 73.9907C519.736 74.9093 520.864 75.3587 522.2 75.336C523.536 75.3147 524.649 74.8293 525.54 73.8813C526.432 72.9347 526.864 71.784 526.844 70.4293C526.82 69.076 526.35 67.9387 525.429 67.02C524.508 66.1013 523.38 65.6547 522.044 65.676C520.708 65.6973 519.594 66.1827 518.706 67.1293C517.814 68.0773 517.38 69.228 517.4 70.5827C517.425 71.936 517.896 73.072 518.817 73.9907ZM517.869 66.388C518.976 65.2453 520.362 64.66 522.026 64.632C523.692 64.6053 525.096 65.1453 526.24 66.2533C527.382 67.36 527.968 68.7453 527.997 70.4107C528.022 72.076 527.481 73.48 526.374 74.6227C525.269 75.768 523.884 76.352 522.217 76.38C520.553 76.4053 519.148 75.8667 518.004 74.7587C516.861 73.652 516.276 72.2667 516.249 70.6013C516.221 68.936 516.762 67.532 517.869 66.388Z" fill="black"/>
<path d="M534.528 70.0525L537.075 70.2365C537.751 70.2872 538.29 70.1699 538.696 69.8872C539.178 69.5552 539.444 69.0792 539.488 68.4579C539.534 67.8565 539.339 67.3565 538.908 66.9579C538.563 66.6405 538.047 66.4552 537.354 66.4045L534.806 66.2205L534.528 70.0525ZM534.148 75.3085L537.296 75.5365C538.134 75.5992 538.786 75.4805 539.25 75.1845C539.807 74.8205 540.111 74.2832 540.163 73.5712C540.21 72.9139 540 72.3765 539.538 71.9565C539.122 71.5965 538.479 71.3859 537.603 71.3205L534.452 71.0925L534.148 75.3085ZM533.788 65.1005L537.43 65.3645C538.47 65.4405 539.247 65.7179 539.763 66.1939C540.38 66.7712 540.659 67.5072 540.592 68.4019C540.519 69.4232 540.054 70.1699 539.192 70.6392C539.699 70.7485 540.138 70.9925 540.516 71.3672C541.112 71.9792 541.378 72.7512 541.311 73.6819C541.235 74.7232 540.803 75.4979 540.015 76.0099C539.32 76.4725 538.39 76.6632 537.222 76.5779L532.978 76.2699L533.788 65.1005Z" fill="black"/>
<path d="M552.393 67.8542C551.219 67.6715 550.141 67.9342 549.16 68.6422C548.181 69.3515 547.579 70.4195 547.356 71.8488C547.149 73.1675 547.364 74.3715 547.987 75.4608C548.616 76.5488 549.599 77.1968 550.937 77.4048C552.256 77.6102 553.372 77.2982 554.291 76.4688C555.207 75.6395 555.769 74.5462 555.981 73.1902C556.213 71.6888 555.949 70.4675 555.191 69.5248C554.428 68.5822 553.497 68.0262 552.393 67.8542ZM556.475 69.6555L556.776 67.7302L557.86 67.8995L556.139 78.9648L555.053 78.7955L555.364 76.8155C554.129 78.1795 552.573 78.7155 550.695 78.4222C549.193 78.1902 548.001 77.4582 547.12 76.2275C546.239 74.9968 545.931 73.5062 546.204 71.7515C546.472 70.0342 547.187 68.7195 548.347 67.8075C549.505 66.8955 550.891 66.5648 552.5 66.8155C554.347 67.1022 555.671 68.0488 556.475 69.6555Z" fill="black"/>
<path d="M561.67 80.107L564.331 69.2283L565.395 69.4896L564.222 74.2896L570.355 75.7883L571.529 70.9883L572.595 71.2483L569.937 82.127L568.87 81.867L570.109 76.8016L563.977 75.3016L562.738 80.3683L561.67 80.107Z" fill="black"/>
<path d="M491.324 434.283L491.816 431.129C493.284 430.289 494.972 429.896 497.198 430.243C500.162 430.704 502.073 432.945 501.624 435.839C500.838 440.867 491.936 445.017 491.936 445.017L500.281 446.316L500.049 447.811L489.354 446.145L489.586 444.651C489.586 444.651 499.069 440.08 499.744 435.741C500.061 433.7 498.984 432.051 496.825 431.715C495.425 431.497 494.248 431.727 493.306 432.163L492.936 434.533L491.324 434.283Z" fill="black"/>
<path d="M514.841 447.624C517.623 447.757 519.557 444.967 519.754 440.867C519.95 436.744 518.29 433.757 515.51 433.624C512.777 433.493 510.791 436.305 510.594 440.429C510.399 444.529 512.107 447.492 514.841 447.624ZM515.581 432.113C519.49 432.301 521.865 435.897 521.623 440.931C521.382 445.967 518.678 449.32 514.767 449.133C510.839 448.947 508.486 445.351 508.725 440.317C508.967 435.281 511.651 431.927 515.581 432.113Z" fill="black"/>
<path d="M529.966 447.665L534.664 447.39L533.887 434.134L529.46 436.968L528.562 435.6L533.77 432.12L535.663 432.01L536.559 447.28L540.514 447.048L540.602 448.558L530.052 449.176L529.966 447.665Z" fill="black"/>
<path d="M548.327 436.068C548.698 438.344 550.638 439.634 553.105 439.23C554.741 438.964 556.065 437.968 556.546 436.598C555.679 433.089 553.667 431.202 551.414 431.57C549.186 431.934 547.951 433.768 548.327 436.068ZM556.867 438.566C556.102 439.69 554.847 440.504 553.282 440.761C549.771 441.334 546.994 439.524 546.475 436.37C545.954 433.169 547.85 430.618 551.122 430.084C554.845 429.474 557.801 432.522 558.618 437.501C559.43 442.482 557.433 446.34 553.401 446.997C551.433 447.32 549.621 446.958 548.279 446.058L549.114 444.9C550.114 445.514 551.545 445.768 553.181 445.5C555.838 445.066 557.282 442.297 556.867 438.566Z" fill="black"/>
<path d="M500.492 308.499C485.12 320.88 469.613 333.074 454.164 345.346C453.881 345.57 453.579 345.763 453.285 345.971C453.207 345.863 453.129 345.756 453.051 345.648C456.347 342.755 459.592 339.795 462.945 336.978C478.432 323.971 493.908 310.951 509.468 298.044C510.36 297.304 511.264 296.582 512.157 295.844C508.532 292.447 504.892 289.07 501.2 285.759C495.153 280.338 489.763 274.551 486.188 267.088C483.215 260.88 481.617 254.436 481.244 247.768C461.771 269.962 441.173 291.012 420.519 311.97C440.3 289.403 460.128 266.92 481.168 245.67C481.157 245.02 481.139 244.371 481.151 243.716C481.171 242.636 480.723 241.302 480.075 240.406C479.912 240.179 479.747 239.955 479.583 239.728C474.163 245.772 468.748 251.82 463.323 257.859C450.376 272.27 437.419 286.671 424.449 301.062C423.457 302.162 422.336 303.138 421.108 304.011C426.863 296.96 432.501 289.802 438.397 282.878C450.92 268.174 463.571 253.587 476.179 238.964C476.695 238.366 477.207 237.766 477.72 237.167C476.765 235.844 475.799 234.531 474.843 233.208C469.863 239.046 464.843 244.85 459.876 250.698C446.576 266.358 433.348 282.08 419.968 297.664C411.223 307.852 408.664 321.275 413.659 333.05C414.733 335.583 416.184 337.919 417.46 340.348C418.884 341.956 420.308 343.564 421.731 345.172C423.012 346.166 424.275 347.184 425.576 348.148C434.36 354.659 443.98 356.352 454.397 350.683C458.564 348.415 462.353 345.223 466.133 342.196C483.289 328.466 500.391 314.655 517.511 300.874C516.328 299.754 515.14 298.644 513.953 297.528C509.477 301.2 504.997 304.87 500.492 308.499Z" fill="black"/>
<path d="M596.368 195.408C587.208 208.065 576.93 219.634 565.722 230.532C566.173 227.108 590.254 199.842 596.368 195.408ZM584.357 153.466C581.957 162.489 584.644 169.788 588.704 177.06C581.514 172.905 576.857 158.976 584.357 153.466ZM598.21 139.605C596.144 140.508 594.601 141.182 593.058 141.856C592.95 141.738 592.841 141.622 592.733 141.505C593.281 140.902 593.748 140.168 594.389 139.718C596.984 137.9 599.528 135.924 602.298 134.496C604.004 133.617 606.125 133.224 607.986 133.306C617.758 133.742 630.278 146.486 630.87 155.137C630.917 155.809 631.048 156.474 631.048 157.149C631.049 162.626 627.668 165.944 622.465 165.502C618.554 165.169 615.16 163.492 612.268 161.021C609.546 158.698 607.138 155.985 604.442 153.293C605.308 155.624 606.146 157.845 606.957 160.078C608.677 164.812 607.908 167.569 603.845 171.286C602.093 170.422 601.59 169.22 602.762 167.213C603.706 165.594 604.368 163.809 605.346 161.682C602.949 162.664 600.989 163.548 598.98 164.241C598.382 164.448 597.294 164.37 597.053 163.98C596.649 163.33 596.393 162.168 596.697 161.49C597.792 159.054 599.148 156.732 600.688 153.834C597.902 154.976 595.573 155.93 592.52 157.182C592.784 155.772 592.716 154.674 593.182 153.908C594.645 151.505 596.31 149.228 598.316 146.29C595.468 147.505 593.225 148.464 590.981 149.42C590.844 149.234 590.708 149.048 590.57 148.862C592.484 145.553 595.616 143.218 598.21 139.605ZM520.877 202.87C522.204 202.781 523.558 202.765 524.948 202.844C529.685 203.112 533.148 199.952 536.714 197.081C548.608 187.513 560.53 177.99 572.449 168.457C572.604 168.333 572.83 168.31 573.278 168.544C571.526 170.252 569.83 172.03 568.012 173.656C557.502 183.046 547.036 192.496 536.402 201.729C535.018 202.93 533.854 204.182 532.894 205.489C534.61 205.998 536.276 206.602 537.893 207.3C545.04 199.14 553.568 192.625 562.024 185.748C561 188.849 547.653 201.718 539.462 207.994C547.613 211.89 554.486 218.236 560.242 226.898C562.562 230.389 565 233.796 567.469 237.18C578.688 223.853 589.97 210.584 601.246 197.309C603.889 194.198 606.37 191.245 610.534 189.796C613.252 188.85 615.349 185.598 617.792 183.466C618.665 182.706 619.685 181.926 620.729 181.636C624.13 180.692 626.87 178.866 629.208 175.989C637.474 165.81 638.39 158.554 632.562 147.608C631.785 146.15 630.94 144.737 630.124 143.302C628.321 141.265 626.518 139.229 624.716 137.192C623.525 136.312 622.36 135.397 621.141 134.56C613.768 129.493 606.121 126.724 597.292 132.989C593.453 135.713 589.358 138.149 587.972 143.216C587.386 145.358 586.089 146.76 584.409 148.057C581.572 150.246 579.012 152.676 577.76 156.338C577.284 157.729 576.254 159.178 575.118 160.1C560.306 172.116 545.441 184.057 530.544 195.953C529.69 196.633 528.42 197.106 527.392 197.088C523.45 197.018 519.594 197.436 515.818 198.352C517.186 199.628 518.546 200.916 519.917 202.192C520.193 202.449 520.526 202.669 520.877 202.87Z" fill="black"/>
<path d="M622.574 322.07C619.824 318.604 617.01 315.194 614.333 311.668C601.974 295.39 589.601 279.122 577.336 262.764C569.221 251.946 561.29 240.978 553.265 230.087C547.273 221.959 543.408 216.65 533.058 212.032C538.093 213.19 542.785 215.435 546.434 219.414C551.23 224.643 555.817 230.126 560.138 235.791C569.316 247.823 578.366 259.966 587.28 272.208C599.045 288.366 610.628 304.663 622.288 320.902C622.5 321.199 622.685 321.518 622.881 321.824C622.778 321.907 622.677 321.987 622.574 322.07ZM515.713 279.316C541.945 303.482 566.221 329.77 590.392 356.118C564.768 331.274 539.234 306.384 515.713 279.316ZM516.873 261.636C516.381 262.755 514.954 263.874 513.788 264.008C511.457 264.278 509.714 262.612 508.468 260.499C506.993 258.004 507.138 255.187 508.762 253.864C510.454 252.484 513.189 253.118 515.38 255.576C516.64 257.248 517.86 259.391 516.873 261.636ZM562.706 337.29C548.721 324.116 534.849 310.81 520.94 297.544C513.932 290.862 506.842 284.266 499.972 277.427C491.361 268.852 485.957 258.832 486.632 246.294C486.898 241.323 483.896 237.683 481.168 233.934C472.076 221.435 463.028 208.902 453.97 196.375C453.853 196.212 453.832 195.975 454.056 195.506C455.68 197.347 457.37 199.131 458.914 201.043C467.84 212.092 476.822 223.095 485.597 234.272C490.296 240.26 495.796 242.504 502.618 240.944C510.381 239.168 516.03 234.538 519.956 227.5C520.27 226.935 520.577 226.363 520.897 225.8C520.926 225.752 521.028 225.754 521.24 225.686C519.781 235.511 510.326 245.214 500.818 246.023C493.001 246.687 491.76 251.655 492.672 258.043C493.41 263.226 496.086 267.499 499.396 271.226C504.018 276.43 508.968 281.319 513.874 286.235C522.184 294.56 530.577 302.79 538.92 311.079C552.624 324.698 566.32 338.324 580.004 351.967C581.05 353.011 581.978 354.19 582.808 355.48C576.101 349.426 569.29 343.491 562.706 337.29ZM439.712 183.844C448.305 186.384 455.269 183.584 462.21 179.343C458.232 186.875 444.944 191.727 439.712 183.844ZM435.87 176.886C435.693 177.03 435.516 177.172 435.337 177.316C432.188 175.3 429.97 172.008 426.533 169.278C427.388 171.448 428.026 173.068 428.665 174.688C428.553 174.802 428.441 174.915 428.329 175.03C427.757 174.454 427.058 173.96 426.632 173.288C424.904 170.562 423.026 167.887 421.672 164.976C420.838 163.186 420.469 160.959 420.553 159.006C420.992 148.756 433.17 135.652 441.417 135.052C442.058 135.006 442.692 134.87 443.334 134.872C448.556 134.883 451.71 138.439 451.276 143.895C450.95 147.998 449.342 151.555 446.981 154.583C444.76 157.432 442.166 159.952 439.594 162.774C441.818 161.872 443.937 160.996 446.069 160.151C450.584 158.358 453.21 159.172 456.745 163.444C455.917 165.28 454.769 165.803 452.86 164.57C451.318 163.575 449.618 162.876 447.593 161.846C448.524 164.363 449.361 166.422 450.017 168.531C450.212 169.159 450.136 170.299 449.764 170.552C449.142 170.975 448.034 171.24 447.39 170.919C445.07 169.764 442.858 168.336 440.101 166.714C441.182 169.638 442.086 172.084 443.273 175.291C441.929 175.011 440.881 175.079 440.152 174.587C437.866 173.047 435.7 171.295 432.905 169.184C434.056 172.175 434.964 174.531 435.87 176.886ZM494.561 236.054C485.018 227.939 477.954 217.594 470.426 207.354C474.081 208.694 491.964 229.88 494.561 236.054ZM513.122 203.584C509.861 203.102 483.93 177.771 479.718 171.347C491.76 180.988 502.764 191.799 513.122 203.584ZM518.908 249.824C519.961 248.715 521.381 248.723 522.27 250.055C522.844 250.912 522.713 252.267 522.897 253.4C522.661 253.632 522.425 253.864 522.188 254.098C521.132 253.823 519.874 253.846 519.065 253.208C517.916 252.299 517.926 250.86 518.908 249.824ZM619.316 308.336C605.248 288.892 591.094 269.515 576.98 250.106C573.833 245.782 570.622 241.502 567.47 237.18C565 233.796 562.562 230.39 560.244 226.9C554.488 218.236 547.613 211.891 539.464 207.995C538.948 207.75 538.42 207.527 537.893 207.3C536.276 206.603 534.61 206 532.894 205.49C529.814 204.574 526.584 203.943 523.173 203.64C522.432 203.575 521.602 203.286 520.878 202.871C520.528 202.671 520.194 202.45 519.918 202.192C518.546 200.918 517.188 199.628 515.82 198.352C504.372 187.674 492.954 176.956 481.542 166.234C478.584 163.454 475.774 160.844 474.404 156.471C473.508 153.618 470.413 151.41 468.389 148.842C467.665 147.924 466.925 146.852 466.65 145.755C465.758 142.186 464.025 139.306 461.289 136.847C451.608 128.15 444.693 127.171 434.244 133.259C432.853 134.07 431.504 134.955 430.134 135.804C428.188 137.692 426.242 139.579 424.297 141.466C423.456 142.711 422.58 143.932 421.78 145.208C416.933 152.932 414.273 160.947 420.224 170.224C422.81 174.259 425.124 178.562 429.949 180.028C431.99 180.648 433.322 182.011 434.554 183.776C436.636 186.759 438.945 189.451 442.433 190.774C443.757 191.276 445.134 192.359 446.012 193.554C455.674 206.731 465.266 219.964 474.844 233.208C475.8 234.531 476.766 235.846 477.721 237.167C478.34 238.023 478.966 238.874 479.584 239.73C479.748 239.955 479.913 240.18 480.077 240.406C480.722 241.302 481.172 242.636 481.152 243.716C481.14 244.371 481.157 245.02 481.169 245.671C481.181 246.372 481.206 247.071 481.245 247.768C481.618 254.436 483.216 260.882 486.189 267.09C489.764 274.551 495.154 280.338 501.201 285.76C504.893 289.07 508.533 292.447 512.157 295.844C512.757 296.406 513.357 296.967 513.954 297.53C515.141 298.646 516.329 299.755 517.512 300.875C522.372 305.475 527.212 310.098 532.086 314.678C546.978 328.668 561.934 342.586 576.756 356.66C586.444 365.86 599.232 368.576 610.468 363.366C612.884 362.244 615.117 360.73 617.434 359.396C618.97 357.906 620.506 356.416 622.044 354.927C622.993 353.586 623.968 352.263 624.889 350.9C631.116 341.702 632.754 331.612 627.376 320.67C625.224 316.294 622.19 312.311 619.316 308.336Z" fill="black"/>
</svg>
